<?xml version="1.0" encoding="utf-8"?>
<!-- Generator: Adobe Illustrator 24.0.1, SVG Export Plug-In . SVG Version: 6.00 Build 0)  -->
<svg version="1.1" id="Layer_1" xmlns="http://www.w3.org/2000/svg" xmlns:xlink="http://www.w3.org/1999/xlink" x="0px" y="0px"
	 viewBox="0 0 32 32" style="enable-background:new 0 0 32 32;" xml:space="preserve">
<style type="text/css">
	.st0{clip-path:url(#SVGID_2_);}
	.st1{fill:#E2E3E3;}
</style>
<g>
	<defs>
		<rect id="SVGID_1_" width="32" height="32"/>
	</defs>
	<clipPath id="SVGID_2_">
		<use xlink:href="#SVGID_1_"  style="overflow:visible;"/>
	</clipPath>
	<g class="st0">
		<path class="st1" d="M4.3,0h23.5c0.6,0,1.1,0.1,1.6,0.3c0.5,0.2,1,0.5,1.4,0.9c0.4,0.4,0.7,0.9,0.9,1.4C31.9,3.2,32,3.7,32,4.3
			v23.4c0,0.6-0.1,1.1-0.3,1.6c-0.2,0.5-0.5,1-0.9,1.4c-0.4,0.4-0.9,0.7-1.4,0.9c-0.5,0.2-1.1,0.3-1.7,0.3H4.3c-1.1,0-2.2-0.5-3-1.3
			C0.5,29.9,0,28.8,0,27.6V4.3c0-0.6,0.1-1.1,0.3-1.6c0.2-0.5,0.5-1,0.9-1.4c0.4-0.4,0.9-0.7,1.4-0.9C3.2,0.1,3.7,0,4.3,0z"/>
		<path d="M10.3,10.3H12c0.3,0,0.6,0.2,0.7,0.5l1.8,4.5h4l1.3-2.5h-4.5v-1.5H21c0.3,0,0.5,0.1,0.6,0.4c0.1,0.2,0.1,0.5,0,0.7l-2,4
			c-0.1,0.3-0.4,0.4-0.7,0.4h-5c-0.3,0-0.6-0.2-0.7-0.5l-1.8-4.5h-1.2V10.3z"/>
		<path d="M13,19c0-0.6,0.4-1,1-1c0.6,0,1,0.4,1,1s-0.4,1-1,1C13.4,20,13,19.6,13,19z"/>
		<path d="M19,18c-0.6,0-1,0.4-1,1s0.4,1,1,1c0.6,0,1-0.4,1-1S19.6,18,19,18z"/>
		<path d="M26.3,16l-2.6-2.6l0.7-0.7l3.4,3.4l-3.4,3.4l-0.7-0.7L26.3,16z"/>
		<path d="M8.4,13.4L5.7,16l2.6,2.6l-0.7,0.7L4.3,16l3.4-3.4L8.4,13.4z"/>
	</g>
</g>
</svg>
