<?xml version="1.0" encoding="utf-8"?>
<!-- Generator: Adobe Illustrator 24.0.1, SVG Export Plug-In . SVG Version: 6.00 Build 0)  -->
<svg version="1.1" id="Countdown_timer" xmlns="http://www.w3.org/2000/svg" xmlns:xlink="http://www.w3.org/1999/xlink" x="0px"
	 y="0px" viewBox="0 0 32 32" style="enable-background:new 0 0 32 32;" xml:space="preserve">
<style type="text/css">
	.st0{fill:#E2E3E3;}
	.st1{fill:none;stroke:#000000;stroke-width:0.4266;stroke-miterlimit:10;}
	.st2{font-family:'Arial-BoldMT';}
	.st3{font-size:5.1192px;}
	.st4{font-family:'ArialMT';}
	.st5{font-size:3.4128px;}
</style>
<g id="back">
	<path id="Прямоугольник_3" class="st0" d="M4.3,0h23.5C30.1,0,32,1.9,32,4.3v23.5c0,2.4-1.9,4.3-4.3,4.3H4.3
		C1.9,32,0,30.1,0,27.7V4.3C0,1.9,1.9,0,4.3,0z"/>
</g>
<g id="icon">
	<g id="windows">
		<path id="Прямоугольник_6" class="st1" d="M3.6,9h11.1v14.3H3.6V9z"/>
		<path id="Прямоугольник_6_копия" class="st1" d="M17.3,9h11.1v14.3H17.3V9z"/>
	</g>
	<g id="text">
		<text transform="matrix(1 0 0 1 7.7358 15.8711)" class="st2 st3">1</text>
		<text transform="matrix(1 0 0 1 19.9634 15.8711)" class="st2 st3">32</text>
		<text transform="matrix(1 0 0 1 7.646 21.0547)" class="st4 st5">hr</text>
		<text transform="matrix(1 0 0 1 20.0649 21.0547)" class="st4 st5">min</text>
	</g>
</g>
</svg>
