<?xml version="1.0" encoding="utf-8"?>
<!-- Generator: Adobe Illustrator 24.0.1, SVG Export Plug-In . SVG Version: 6.00 Build 0)  -->
<svg version="1.1" id="Layer_1" xmlns="http://www.w3.org/2000/svg" xmlns:xlink="http://www.w3.org/1999/xlink" x="0px" y="0px"
	 viewBox="0 0 32 32" style="enable-background:new 0 0 32 32;" xml:space="preserve">
<style type="text/css">
	.st0{clip-path:url(#SVGID_2_);}
	.st1{fill:#E2E3E3;}
</style>
<g>
	<defs>
		<rect id="SVGID_1_" width="32" height="32"/>
	</defs>
	<clipPath id="SVGID_2_">
		<use xlink:href="#SVGID_1_"  style="overflow:visible;"/>
	</clipPath>
	<g class="st0">
		<path class="st1" d="M4.3,0h23.5c0.6,0,1.1,0.1,1.6,0.3c0.5,0.2,1,0.5,1.4,0.9c0.4,0.4,0.7,0.9,0.9,1.4C31.9,3.2,32,3.7,32,4.3
			v23.4c0,0.6-0.1,1.1-0.3,1.6c-0.2,0.5-0.5,1-0.9,1.4c-0.4,0.4-0.9,0.7-1.4,0.9c-0.5,0.2-1.1,0.3-1.7,0.3H4.3c-1.1,0-2.2-0.5-3-1.3
			C0.5,29.9,0,28.8,0,27.6V4.3c0-0.6,0.1-1.1,0.3-1.6c0.2-0.5,0.5-1,0.9-1.4c0.4-0.4,0.9-0.7,1.4-0.9C3.2,0.1,3.7,0,4.3,0z"/>
		<path d="M6.7,28L6.7,28c0.3,0.1,0.7,0,0.9-0.1c0.2-0.1,0.6-0.5,3.4-3.3c3.6-3.6,3.4-3.4,3.4-4c0-0.3,0-0.4-0.1-0.6l-0.1-0.3
			l1.7-1.7l0.3,0.2c1.3,0.9,3.1,1.3,4.7,1.2c1.1-0.1,1.9-0.3,2.9-0.8c0.7-0.3,1.4-0.8,1.9-1.4c1.2-1.2,2-2.7,2.2-4.4
			c0.1-0.5,0.1-1.6,0-2.1c-0.3-2.2-1.5-4.1-3.3-5.3c-3.3-2.2-7.8-1.5-10.3,1.6c-1.4,1.8-2,4.2-1.5,6.4c0.2,0.8,0.6,1.8,1,2.4
			l0.2,0.3l-1.7,1.7l-0.3-0.1c-0.2-0.1-0.3-0.1-0.6-0.1c-0.6,0-0.5-0.2-4.1,3.5C3.8,24.6,4,24.4,4,25c0,0.6,0.1,0.7,1.2,1.8
			C6.1,27.7,6.3,27.9,6.7,28z M21.5,17.9L21.5,17.9c-0.5,0.1-1.6,0.1-2.1,0c-1.5-0.2-2.9-1-3.9-2.1c-1.9-2.2-2.1-5.5-0.4-7.9
			c0.3-0.4,1-1.2,1.5-1.5c0.7-0.5,1.6-0.9,2.4-1.1c0.6-0.1,1.8-0.1,2.4,0c0.8,0.2,1.7,0.5,2.4,1c2.7,1.8,3.6,5.2,2.2,8.1
			C25.2,16.3,23.5,17.6,21.5,17.9z M17.7,25.3L17.7,25.3c1.2,0.3,2.2,0.6,2.2,0.6c0,0,0.1-0.1,0.1-0.2c0.2-0.7,0.4-1.5,0.6-2.2
			c0.5-1.8,0.6-2.1,0.5-2.1c-0.2-0.1-4.4-1.3-4.4-1.2c-0.1,0.1-1.3,4.4-1.3,4.4C16.3,24.9,17,25.1,17.7,25.3z M20.7,25.9L20.7,25.9
			C20.7,25.9,20.7,25.9,20.7,25.9c0.2,0,4.3-1.2,4.4-1.2c0,0,1.3-4.3,1.2-4.4c0,0-4.3,1.2-4.3,1.2C21.9,21.5,20.7,25.8,20.7,25.9z
			 M13.6,23.9L13.6,23.9L12,25.5l1.4-0.4c0.8-0.2,1.4-0.4,1.5-0.4c0,0,1.3-4.3,1.2-4.4c0,0-0.1,0-0.2,0l-0.2,0.1l0,0.3
			c0,0.2,0,0.4-0.1,0.5c-0.1,0.3-0.3,0.8-0.5,1C15.2,22.3,14.4,23.1,13.6,23.9z M21.8,20.9L21.8,20.9c0,0,4.5-1.2,4.5-1.3
			c0,0-0.2-0.8-0.3-1c0,0-0.1,0-0.3,0.1c-1.1,0.9-2.6,1.5-3.9,1.7l-0.2,0l0,0.2C21.8,20.8,21.8,20.8,21.8,20.9z M6.8,19.6L6.8,19.6
			C6.8,19.6,6.8,19.6,6.8,19.6c0.6-0.4,1-0.8,1.5-1.3c0.8-0.8,1.4-1.4,1.5-1.5c0.1-0.1,0.2-0.1,0.1-0.2c0-0.1-0.1-0.1-2.2-0.7
			c-2-0.6-2.2-0.6-2.2-0.5C5.6,15.7,6.7,19.5,6.8,19.6z M7.6,15.2L7.6,15.2c1.2,0.3,2.2,0.6,2.2,0.6c0.1,0,0.1-0.2,0.7-2.2
			c0.3-1.2,0.6-2.2,0.6-2.2c0,0-4.4-1.3-4.5-1.3c0,0-1.3,4.4-1.3,4.5C5.4,14.6,6.4,14.9,7.6,15.2z M10.5,15.7L10.5,15.7
			C10.5,15.8,10.5,15.8,10.5,15.7c0.1,0,0.5-0.1,0.8-0.2c0.4-0.1,0.7-0.2,0.7-0.2c0,0-0.1-0.2-0.2-0.5c-0.2-0.6-0.4-1.2-0.5-1.7
			l-0.1-0.3L11,14.2C10.8,15,10.6,15.7,10.5,15.7z M8.9,10.1L8.9,10.1l2.2,0.6c0,0-1.2-4.3-1.2-4.4c0,0-4.3-1.3-4.4-1.2
			c0,0,1.2,4.3,1.2,4.3C6.7,9.5,7.7,9.8,8.9,10.1z M11.1,8.4L11.1,8.4c0.4,1.4,0.5,1.7,0.5,1.4c0-0.2,0.1-0.4,0.1-0.6
			c0.4-1.3,1-2.6,2-3.6c0.2-0.2,0.3-0.4,0.3-0.3c0,0-0.8,0.2-1.8,0.5l-1.7,0.5l0.1,0.3L11.1,8.4z"/>
	</g>
</g>
</svg>
