<svg id="Layer_1" data-name="Layer 1" xmlns="http://www.w3.org/2000/svg" xmlns:xlink="http://www.w3.org/1999/xlink" viewBox="0 0 32 32.1"><defs><style>.cls-1{fill:none;}.cls-2{clip-path:url(#clip-path);}.cls-3{fill:#e2e3e3;}</style><clipPath id="clip-path"><rect class="cls-1" width="32" height="32"/></clipPath></defs><title>size-guide</title><g class="cls-2"><path class="cls-3" d="M4.3,0H27.8A4.25,4.25,0,0,1,32,4.3V27.8a4.27,4.27,0,0,1-4.3,4.3H4.3A4.42,4.42,0,0,1,0,27.7V4.3A4.27,4.27,0,0,1,4.3,0Z"/><path d="M20,7,7,20l5,5L25,12ZM9,20l1-1,2,2,1-1-2-2,1-1,1,1,1-1-1-1,1-1,2,2,1-1-2-2,1-1,1,1,1-1-1-1,1-1,2,2,1-1-2-2,1-1,3,3L12,23Z"/></g></svg>